<svg width="90" height="41" viewBox="0 0 90 41" fill="none" xmlns="http://www.w3.org/2000/svg">
<path d="M90 32.636C90 27.53 85.991 24.396 81.187 24.396C76.415 24.396 72.406 27.529 72.406 32.636C72.406 37.743 76.414 41 81.187 41C85.987 41 90 37.742 90 32.636ZM84.973 32.636C85.0117 33.1527 84.9433 33.6717 84.7722 34.1608C84.601 34.6498 84.3307 35.0982 83.9783 35.478C83.6259 35.8578 83.1989 36.1607 82.724 36.3679C82.2492 36.5751 81.7366 36.682 81.2185 36.682C80.7004 36.682 80.1879 36.5751 79.713 36.3679C79.2381 36.1607 78.8111 35.8578 78.4587 35.478C78.1063 35.0982 77.836 34.6498 77.6649 34.1608C77.4937 33.6717 77.4254 33.1527 77.464 32.636C77.4289 32.1261 77.4991 31.6144 77.6703 31.1328C77.8416 30.6512 78.1101 30.21 78.4593 29.8367C78.8085 29.4634 79.2308 29.166 79.6999 28.9631C80.169 28.7601 80.6749 28.6559 81.186 28.657C81.7003 28.6548 82.2097 28.7576 82.6828 28.9593C83.1559 29.161 83.5828 29.4572 83.9373 29.8298C84.2919 30.2024 84.5665 30.6435 84.7444 31.1261C84.9224 31.6086 84.9998 32.1224 84.972 32.636H84.973ZM76.872 16.536C76.872 11.43 72.863 8.29601 68.058 8.29601C63.286 8.29601 59.278 11.429 59.278 16.536C59.2427 18.4438 59.8812 20.3029 61.0812 21.7865C62.2813 23.27 63.966 24.2829 65.839 24.647C63.9667 24.9889 62.2776 25.9871 61.0751 27.4623C59.8726 28.9376 59.2354 30.7932 59.278 32.696C59.278 37.866 63.159 40.996 68.154 40.996C70.094 41.0426 71.9979 40.4668 73.587 39.353L71.087 35.538C70.7204 35.908 70.2823 36.1995 69.7993 36.3946C69.3164 36.5898 68.7988 36.6845 68.278 36.673C67.2732 36.6004 66.3326 36.152 65.6435 35.4172C64.9543 34.6824 64.5672 33.7149 64.5591 32.7075C64.551 31.7001 64.9226 30.7267 65.5999 29.9809C66.2772 29.2351 67.2105 28.7717 68.214 28.683C68.7383 28.6813 69.2567 28.7922 69.7343 29.0084C70.2119 29.2246 70.6374 29.541 70.982 29.936L73.517 26.062C72.5569 25.367 71.4605 24.8831 70.3 24.642C72.1742 24.28 73.8606 23.2684 75.0622 21.7852C76.2638 20.3021 76.9037 18.4425 76.869 16.534L76.872 16.536ZM71.841 16.534C71.8787 17.05 71.8096 17.5683 71.638 18.0564C71.4665 18.5445 71.1961 18.992 70.8438 19.371C70.4915 19.7499 70.0649 20.0522 69.5906 20.2588C69.1162 20.4655 68.6044 20.5722 68.087 20.5722C67.5696 20.5722 67.0578 20.4655 66.5834 20.2588C66.1091 20.0522 65.6825 19.7499 65.3302 19.371C64.978 18.992 64.7076 18.5445 64.536 18.0564C64.3644 17.5683 64.2953 17.05 64.333 16.534C64.2979 16.024 64.3681 15.5123 64.5393 15.0306C64.7106 14.549 64.9791 14.1077 65.3282 13.7344C65.6774 13.361 66.0997 13.0635 66.5688 12.8605C67.0379 12.6574 67.5438 12.5531 68.055 12.554C68.5694 12.5517 69.0788 12.6546 69.552 12.8564C70.0252 13.0581 70.4522 13.3544 70.8067 13.7271C71.1613 14.0998 71.4359 14.5411 71.6138 15.0238C71.7916 15.5064 71.8689 16.0204 71.841 16.534ZM53.281 24.397H58.53V14.747C58.53 11.615 57.003 8.35701 52.74 8.35701C51.7914 8.33765 50.8542 8.56759 50.0223 9.02385C49.1903 9.4801 48.4927 10.1467 47.999 10.957H47.936V8.79501H42.876V24.395H48.126V15.936C48.126 14.15 49.08 12.584 50.926 12.584C52.803 12.584 53.281 14.15 53.281 15.874V24.397ZM41.77 3.99101C41.7793 3.38819 41.6091 2.79623 41.2809 2.29047C40.9528 1.78471 40.4816 1.38801 39.9273 1.15087C39.373 0.913741 38.7607 0.846894 38.1683 0.958835C37.5759 1.07078 37.0302 1.35645 36.6006 1.77949C36.1711 2.20253 35.8771 2.74381 35.7562 3.33444C35.6352 3.92507 35.6927 4.53833 35.9213 5.09618C36.15 5.65403 36.5394 6.13123 37.0401 6.46705C37.5408 6.80288 38.1301 6.98213 38.733 6.98201C39.1288 6.98504 39.5213 6.91008 39.8882 6.76141C40.255 6.61274 40.589 6.39326 40.871 6.11552C41.153 5.83778 41.3775 5.50721 41.5318 5.14268C41.6861 4.77816 41.767 4.38682 41.77 3.99101ZM35.38 16.539C35.38 12.184 32.48 8.36201 27.872 8.36201C26.9053 8.34095 25.9467 8.54174 25.0697 8.94894C24.1927 9.35614 23.4207 9.95893 22.813 10.711H22.713V8.80101H17.75V31.922H22.968V22.675H23.031C23.614 23.3767 24.3493 23.9363 25.1811 24.3111C26.0129 24.6859 26.9191 24.8661 27.831 24.838C32.603 24.838 35.371 20.89 35.371 16.538L35.38 16.539ZM30.312 16.538C30.3531 17.0513 30.2876 17.5676 30.1198 18.0544C29.952 18.5412 29.6855 18.9882 29.3369 19.3672C28.9883 19.7462 28.5652 20.0491 28.0941 20.2569C27.6229 20.4648 27.1139 20.5731 26.599 20.575C25.5682 20.5262 24.5958 20.0823 23.8836 19.3355C23.1714 18.5888 22.774 17.5965 22.774 16.5645C22.774 15.5326 23.1714 14.5402 23.8836 13.7935C24.5958 13.0467 25.5682 12.6028 26.599 12.554C27.1112 12.5495 27.6188 12.6514 28.0896 12.8532C28.5604 13.0551 28.9842 13.3525 29.334 13.7266C29.6839 14.1008 29.9523 14.5435 30.1222 15.0267C30.2921 15.51 30.3598 16.0232 30.321 16.534L30.312 16.538ZM13.744 7.98101L17.211 4.38101C15.1538 2.62307 12.537 1.6568 9.83102 1.65601C5.63102 1.65601 1.11301 3.69201 1.11301 8.61101C1.11301 12.621 4.01301 14.062 6.87201 14.971C9.83101 15.91 11.549 16.443 11.549 18.134C11.549 19.92 10.085 20.547 8.431 20.547C7.50087 20.5149 6.58765 20.2893 5.74951 19.8847C4.91137 19.4801 4.16672 18.9053 3.56302 18.197L0 21.768C2.28622 23.8922 5.31113 25.0403 8.431 24.968C12.885 24.968 17.053 22.68 17.053 17.574C17.053 13.157 13.107 11.874 10.053 10.901C7.92201 10.244 6.586 9.77401 6.586 8.30101C6.586 6.54601 8.33602 6.07701 9.73502 6.07701C10.4995 6.09855 11.2511 6.27968 11.9415 6.60878C12.6319 6.93787 13.2459 7.40766 13.744 7.98801V7.98101ZM41.344 8.803H36.127V24.403H41.344V8.803Z" fill="black"/>
</svg>
